# xmcd
#
# Track frame offsets: 
#        150
#        16755
#        31633
#        49023
#
# Disc length: 898 seconds
#
# Revision: 0
# Processed by: cddbd v1.5.2PL0 Copyright (c) Steve Scherf et al.
# Submitted via: ExactAudioCopy v0.95a5
#
DISCID=1e038004
DTITLE=Elephant's Escape - Draft
DYEAR=2016
DGENRE=Blues
TTITLE0=Smayin'
TTITLE1=Money On Time
TTITLE2=1921
TTITLE3=Whimsieal
EXTD=
EXTT0=
EXTT1=
EXTT2=
EXTT3=
PLAYORDER=
